HIERARCHY
ROOT Hips
{
	OFFSET -0.001795 -0.223333 0.028219
	CHANNELS 6 Xposition Yposition Zposition Zrotation Yrotation Xrotation 
	JOINT LeftUpLeg
	{
		OFFSET 0.069520 -0.091406 -0.006815
		CHANNELS 3 Zrotation Yrotation Xrotation
		JOINT LeftLeg
		{
			OFFSET 0.034277 -0.375199 -0.004496
			CHANNELS 3 Zrotation Yrotation Xrotation
			JOINT LeftFoot
			{
				OFFSET -0.013596 -0.397961 -0.043693
				CHANNELS 3 Zrotation Yrotation Xrotation
				JOINT LeftToe
				{
					OFFSET 0.026358 -0.055791 0.119288
					CHANNELS 3 Zrotation Yrotation Xrotation
					End Site
					{
						OFFSET 0.000000 0.000000 0.000000
					}
				}
			}
		}
	}
	JOINT RightUpLeg
	{
		OFFSET -0.067670 -0.090522 -0.004320
		CHANNELS 3 Zrotation Yrotation Xrotation
		JOINT RightLeg
		{
			OFFSET -0.038290 -0.382569 -0.008850
			CHANNELS 3 Zrotation Yrotation Xrotation
			JOINT RightFoot
			{
				OFFSET 0.015774 -0.398415 -0.042312
				CHANNELS 3 Zrotation Yrotation Xrotation
				JOINT RightToe
				{
					OFFSET -0.025372 -0.048144 0.123348
					CHANNELS 3 Zrotation Yrotation Xrotation
					End Site
					{
						OFFSET 0.000000 0.000000 0.000000
					}
				}
			}
		}
	}
	JOINT Spine
	{
		OFFSET -0.002533 0.108963 -0.026696
		CHANNELS 3 Zrotation Yrotation Xrotation
		JOINT Spine1
		{
			OFFSET 0.005487 0.135180 0.001092
			CHANNELS 3 Zrotation Yrotation Xrotation
			JOINT Spine2
			{
				OFFSET 0.001457 0.052922 0.025425
				CHANNELS 3 Zrotation Yrotation Xrotation
				JOINT Neck
				{
					OFFSET -0.002778 0.213870 -0.042857
					CHANNELS 3 Zrotation Yrotation Xrotation
					JOINT Head
					{
						OFFSET 0.005152 0.064970 0.051349
						CHANNELS 3 Zrotation Yrotation Xrotation
						End Site
						{
							OFFSET 0.000000 0.000000 0.000000
						}
					}
				}
				JOINT LeftShoulder
				{
					OFFSET 0.078845 0.121749 -0.034090
					CHANNELS 3 Zrotation Yrotation Xrotation
					JOINT LeftArm
					{
						OFFSET 0.090977 0.030469 -0.008868
						CHANNELS 3 Zrotation Yrotation Xrotation
						JOINT LeftForeArm
						{
							OFFSET 0.259612 -0.012772 -0.027456
							CHANNELS 3 Zrotation Yrotation Xrotation
							JOINT LeftHand
							{
								OFFSET 0.249234 0.008986 -0.001171
								CHANNELS 3 Zrotation Yrotation Xrotation
								End Site
								{
									OFFSET 0.000000 0.000000 0.000000
								}
							}
						}
					}
				}
				JOINT RightShoulder
				{
					OFFSET -0.081759 0.118833 -0.038615
					CHANNELS 3 Zrotation Yrotation Xrotation
					JOINT RightArm
					{
						OFFSET -0.096012 0.032551 -0.009143
						CHANNELS 3 Zrotation Yrotation Xrotation
						JOINT RightForeArm
						{
							OFFSET -0.253742 -0.013329 -0.021401
							CHANNELS 3 Zrotation Yrotation Xrotation
							JOINT RightHand
							{
								OFFSET -0.255298 0.007772 -0.005559
								CHANNELS 3 Zrotation Yrotation Xrotation
								End Site
								{
									OFFSET 0.000000 0.000000 0.000000
								}
							}
						}
					}
				}
			}
		}
	}
}
MOTION
Frames: 11
Frame Time: 0.050000
0.000000 0.906022 0.000000 -1.842442 2.610415 17.330944 15.111747 0.324933 -30.570067 -11.741307 2.875814 23.708964 11.091235 22.988997 4.719133 0.000000 0.000000 0.000000 -20.923670 -1.689614 -29.870429 8.466094 -1.656230 16.368473 -7.460295 -18.711666 16.258147 0.000000 0.000000 0.000000 4.887287 -3.021961 28.606282 -2.796601 1.227322 -23.105462 -1.634092 5.948559 24.174770 15.093158 -3.617671 -35.952799 0.000000 0.000000 0.000000 -14.704932 -37.009547 16.751394 -63.816086 -50.100791 20.550984 7.530108 -23.856147 -0.466219 0.000000 0.000000 0.000000 22.394994 24.625548 16.101780 54.336872 56.318840 21.081429 -19.078921 6.489006 -0.101367 0.000000 0.000000 0.000000 
-0.012532 0.902787 0.000164 -1.947528 3.687370 19.569814 16.929490 0.608136 -32.629533 -11.695722 2.828415 24.045487 10.075034 21.375417 4.641013 0.000000 0.000000 0.000000 -22.422815 -2.246152 -31.167311 11.324294 -2.390768 15.270089 -8.386864 -20.173483 16.059990 0.000000 0.000000 0.000000 4.873291 -3.031391 27.456805 -1.171435 0.883449 -23.850569 -2.391602 6.035935 24.655307 17.318436 -4.148965 -37.808601 0.000000 0.000000 0.000000 -17.297113 -37.417087 17.623930 -57.864614 -49.558138 17.558835 7.284327 -25.820959 -0.445936 0.000000 0.000000 0.000000 23.739709 23.236596 15.987568 55.465262 57.600839 22.366868 -21.246397 6.630149 -0.053152 0.000000 0.000000 0.000000 
-0.025394 0.902132 0.000065 -2.273152 3.112136 19.819247 17.958041 0.931532 -32.633526 -11.814200 2.984016 24.694541 10.745646 22.563114 4.210721 0.000000 0.000000 0.000000 -21.535064 -2.150575 -33.109977 11.461367 -2.539430 17.150561 -7.532659 -18.844263 15.216633 0.000000 0.000000 0.000000 4.585234 -2.975260 28.186411 -2.903029 1.232309 -23.906227 -2.063262 4.811543 23.164222 16.968062 -4.950245 -34.027667 0.000000 0.000000 0.000000 -17.679477 -37.391658 18.172492 -53.671641 -50.479717 16.520097 7.783038 -22.671503 -0.500411 0.000000 0.000000 0.000000 25.540491 24.182441 16.551905 51.606672 55.810725 19.129740 -20.538894 6.292831 -0.048306 0.000000 0.000000 0.000000 
-0.038307 0.902975 -0.000726 -2.871624 2.674648 21.450054 19.351258 1.301174 -32.852052 -11.949652 2.983045 23.112672 11.554456 23.964428 5.726179 0.000000 0.000000 0.000000 -20.922496 -2.031932 -35.037021 10.782131 -2.279516 16.655531 -7.389861 -18.712410 16.162324 0.000000 0.000000 0.000000 5.196735 -3.052223 27.060131 -3.833792 1.390817 -24.626549 -2.340391 3.954270 23.740954 16.568993 -4.541841 -35.574264 0.000000 0.000000 0.000000 -15.109702 -37.869438 18.068948 -54.271950 -53.167042 18.345799 10.474581 -18.413251 -0.811410 0.000000 0.000000 0.000000 24.748509 23.776436 15.647671 53.763925 57.457597 21.358455 -20.529657 4.148021 0.272872 0.000000 0.000000 0.000000 
-0.051401 0.905101 -0.002200 -3.323269 1.839773 22.075691 20.225117 1.609470 -32.593081 -10.929320 2.733352 22.868687 11.913900 24.343713 7.873237 0.000000 0.000000 0.000000 -19.865370 -1.709496 -36.634568 11.206553 -2.360784 17.017351 -7.200458 -18.568815 16.137635 0.000000 0.000000 0.000000 4.431956 -2.797892 27.515044 -2.661054 1.145172 -24.853485 -2.873668 3.966241 23.323186 16.615962 -4.738103 -34.807074 0.000000 0.000000 0.000000 -13.540821 -37.767939 17.663673 -50.279722 -54.835608 17.419709 11.284490 -14.649322 -0.746893 0.000000 0.000000 0.000000 25.235422 24.467017 16.078974 52.317554 57.405081 20.553297 -19.557567 3.554027 0.317106 0.000000 0.000000 0.000000 
-0.064034 0.908181 -0.004149 -3.896243 1.472454 23.191541 21.367781 1.831258 -31.786575 -10.411703 2.473530 20.774150 12.191799 24.553559 10.111218 0.000000 0.000000 0.000000 -18.205550 -1.178687 -37.384743 10.780421 -2.108686 15.605041 -6.826531 -18.023373 15.162985 0.000000 0.000000 0.000000 4.660331 -2.898032 27.840867 -3.028386 1.190799 -26.393527 -2.484229 3.148700 23.539442 16.872731 -5.002592 -34.822560 0.000000 0.000000 0.000000 -15.026589 -38.058954 18.679432 -44.754675 -54.895397 14.835958 11.116823 -11.023348 -0.536263 0.000000 0.000000 0.000000 25.993251 24.678772 16.012036 50.760577 57.045674 19.428685 -18.064569 3.431741 0.289943 0.000000 0.000000 0.000000 
-0.076498 0.910035 -0.006203 -3.743544 1.179526 23.875420 21.491025 1.871312 -31.699507 -9.488225 2.089253 18.777414 12.241439 24.384138 12.547993 0.000000 0.000000 0.000000 -17.674283 -1.003741 -37.988800 10.988543 -2.049504 14.291138 -7.045465 -18.487464 15.293861 0.000000 0.000000 0.000000 4.364403 -2.822149 28.272991 -3.038417 1.190370 -26.101420 -2.883874 2.506533 22.946430 16.407178 -4.799735 -34.889620 0.000000 0.000000 0.000000 -14.107556 -37.620229 18.388085 -42.478476 -56.498023 14.572262 12.359531 -7.654382 -0.407726 0.000000 0.000000 0.000000 25.645754 24.742052 15.703141 51.652142 57.340841 20.172133 -17.734946 3.316251 0.294294 0.000000 0.000000 0.000000 
-0.088649 0.911489 -0.008021 -3.574836 1.332557 24.470570 21.707884 1.842159 -31.487949 -8.979082 1.799713 16.414341 12.066978 24.015255 13.872503 0.000000 0.000000 0.000000 -16.652460 -0.747188 -38.248580 10.919199 -1.973283 13.394971 -7.564291 -19.421344 14.621957 0.000000 0.000000 0.000000 4.349849 -2.893316 28.838080 -3.065700 1.188037 -26.635932 -2.658141 2.186895 22.577075 16.212503 -4.801433 -34.508778 0.000000 0.000000 0.000000 -15.339927 -37.813022 19.042897 -39.743446 -57.002478 13.466108 12.731338 -5.710588 -0.278519 0.000000 0.000000 0.000000 26.764879 24.434398 15.699842 50.873683 56.613184 19.325272 -16.742249 4.015777 0.196163 0.000000 0.000000 0.000000 
-0.100702 0.912451 -0.009573 -3.324693 1.462428 24.848402 21.851003 1.822036 -31.403490 -8.397479 1.561922 14.827704 12.071283 23.900404 15.526750 0.000000 0.000000 0.000000 -16.095709 -0.653050 -38.925851 11.015274 -1.985827 13.210194 -7.770872 -19.808072 14.364132 0.000000 0.000000 0.000000 4.560151 -3.023205 29.286491 -3.134325 1.202190 -26.571997 -2.675941 2.210759 22.425614 15.412064 -4.115975 -35.785531 0.000000 0.000000 0.000000 -14.974160 -37.572263 18.803125 -38.919438 -58.361328 13.642982 13.260338 -4.167773 -0.168428 0.000000 0.000000 0.000000 25.608420 24.428829 15.452521 53.501441 56.828242 20.987111 -16.519000 4.430075 0.148809 0.000000 0.000000 0.000000 
-0.112846 0.912907 -0.010786 -2.919239 1.921158 25.161457 22.116944 1.779131 -31.403146 -8.212124 1.419578 13.270684 12.384182 24.210116 17.797265 0.000000 0.000000 0.000000 -15.850313 -0.706142 -39.437136 11.589144 -2.176684 13.660146 -7.822923 -19.868569 13.621953 0.000000 0.000000 0.000000 4.674167 -3.141089 29.604292 -3.033674 1.191445 -26.500113 -2.594747 2.198845 22.387604 15.232527 -3.860535 -36.404728 0.000000 0.000000 0.000000 -13.393466 -37.641368 18.286080 -38.828924 -59.642500 14.135101 14.233616 -3.527433 -0.129753 0.000000 0.000000 0.000000 25.005617 24.399605 15.396476 55.369903 57.232405 22.346632 -16.245856 4.892804 0.098462 0.000000 0.000000 0.000000 
-0.125078 0.912248 -0.011814 -2.841476 2.340060 25.029427 22.317952 1.743279 -31.305672 -7.878738 1.303383 12.700756 12.352299 24.146510 18.581357 0.000000 0.000000 0.000000 -15.467087 -0.692632 -39.646714 11.985363 -2.360305 14.522088 -8.145055 -20.421945 13.051077 0.000000 0.000000 0.000000 5.040822 -3.336657 29.875083 -3.154316 1.217837 -26.189020 -2.202829 2.722266 22.512965 14.857458 -3.542103 -36.814324 0.000000 0.000000 0.000000 -13.043488 -37.998188 18.194469 -38.621656 -60.033027 14.117480 15.660760 -4.014495 -0.194335 0.000000 0.000000 0.000000 24.235168 24.617278 15.618805 56.419190 57.450438 23.117557 -16.824045 5.617048 0.024769 0.000000 0.000000 0.000000 
